<svg width="457" height="132" viewBox="0 0 457 132" fill="none" xmlns="http://www.w3.org/2000/svg">
<rect width="457" height="132" rx="30" fill="black" fill-opacity="0.01"/>
<path d="M51.4609 97.5C50.5169 97.5 49.9147 97.1745 49.6543 96.5234C49.4264 95.8398 49.3125 95.026 49.3125 94.082V46.2793C49.3125 44.2611 49.9798 43.252 51.3145 43.252C52.1283 43.252 53.0723 43.7402 54.1465 44.7168L104.098 91.25V46.8164C104.098 45.8724 104.195 45.026 104.391 44.2773C104.618 43.4961 105.221 43.1055 106.197 43.1055C107.044 43.1055 107.597 43.4798 107.857 44.2285C108.118 44.9447 108.248 45.8073 108.248 46.8164V94.375C108.248 96.4583 107.695 97.5 106.588 97.5C105.839 97.5 104.911 96.9954 103.805 95.9863L53.4629 49.3555V94.082C53.4629 95.026 53.3164 95.8398 53.0234 96.5234C52.763 97.1745 52.2422 97.5 51.4609 97.5ZM144.723 97.5C143.779 97.5 143.176 97.1745 142.916 96.5234C142.656 95.8398 142.525 95.0749 142.525 94.2285V74.4043L119.381 46.7188C118.827 46.0677 118.551 45.4167 118.551 44.7656C118.551 43.6589 119.088 43.1055 120.162 43.1055C120.878 43.1055 121.578 43.5124 122.262 44.3262L144.576 71.377L166.891 44.3262C167.542 43.5449 168.225 43.1543 168.941 43.1543C170.016 43.1543 170.553 43.7402 170.553 44.9121C170.553 45.4655 170.276 46.0677 169.723 46.7188L146.676 74.502V94.1309C146.676 95.0749 146.546 95.8724 146.285 96.5234C146.057 97.1745 145.536 97.5 144.723 97.5ZM183.004 97.5C182.06 97.5 181.458 97.1745 181.197 96.5234C180.969 95.8398 180.855 95.0586 180.855 94.1797V46.3281C180.855 45.3841 180.986 44.6191 181.246 44.0332C181.539 43.4147 182.158 43.1055 183.102 43.1055C183.883 43.1055 184.404 43.4147 184.664 44.0332C184.924 44.6517 185.055 45.3841 185.055 46.2305V71.9141L224.166 43.8379C224.817 43.3496 225.468 43.1055 226.119 43.1055C227.193 43.1055 227.73 43.6263 227.73 44.668C227.73 45.3841 227.372 46.0026 226.656 46.5234L198.238 67.1777L226.705 93.7402C227.356 94.3262 227.682 94.9772 227.682 95.6934C227.682 96.1816 227.519 96.6048 227.193 96.9629C226.868 97.321 226.461 97.5 225.973 97.5C225.452 97.5 224.915 97.2559 224.361 96.7676L195.162 69.1797L185.055 75.8203V94.082C185.055 95.026 184.908 95.8398 184.615 96.5234C184.322 97.1745 183.785 97.5 183.004 97.5ZM255.904 98.4766C252.226 98.4766 248.84 98.1673 245.748 97.5488C242.656 96.9303 240.035 95.791 237.887 94.1309C235.771 92.4707 234.29 90.1107 233.443 87.0508C233.248 86.4974 233.215 85.8464 233.346 85.0977C233.508 84.349 234.029 83.9746 234.908 83.9746C235.331 83.9746 235.755 84.1374 236.178 84.4629C236.601 84.7559 236.878 85.1953 237.008 85.7812C237.691 88.7435 239.042 90.8919 241.061 92.2266C243.111 93.5286 245.455 94.3424 248.092 94.668C250.761 94.9609 253.365 95.1074 255.904 95.1074C260.527 95.1074 264.042 94.0983 266.451 92.0801C268.893 90.0293 270.553 87.0345 271.432 83.0957C272.343 79.1243 272.799 74.2578 272.799 68.4961V46.5234C272.799 45.5794 272.929 44.7819 273.189 44.1309C273.45 43.4473 274.052 43.1055 274.996 43.1055C275.842 43.1055 276.38 43.4798 276.607 44.2285C276.835 44.9772 276.949 45.7422 276.949 46.5234V68.4961C276.949 75.2669 276.314 80.8659 275.045 85.293C273.808 89.7201 271.66 93.0241 268.6 95.2051C265.572 97.3861 261.34 98.4766 255.904 98.4766ZM285.348 97.9883C284.664 97.9883 284.225 97.8092 284.029 97.4512C283.834 97.0931 283.736 96.7839 283.736 96.5234C283.736 96.1003 283.834 95.6934 284.029 95.3027C284.257 94.9121 284.501 94.4889 284.762 94.0332L311.52 45.498C311.878 44.8796 312.203 44.3424 312.496 43.8867C312.789 43.431 313.131 43.1706 313.521 43.1055H345.602C346.546 43.1055 347.376 43.1543 348.092 43.252C348.84 43.3496 349.215 43.8704 349.215 44.8145C349.215 45.6283 348.84 46.084 348.092 46.1816C347.376 46.2793 346.546 46.3281 345.602 46.3281H318.062V68.0078H344.723C345.667 68.0078 346.432 68.0892 347.018 68.252C347.604 68.3822 347.896 68.8216 347.896 69.5703C347.896 70.3516 347.587 70.8398 346.969 71.0352C346.35 71.2305 345.602 71.3281 344.723 71.3281H318.062V94.2773H345.699C346.643 94.2773 347.473 94.3262 348.189 94.4238C348.938 94.5215 349.312 94.9772 349.312 95.791C349.312 96.735 348.938 97.2559 348.189 97.3535C347.473 97.4512 346.643 97.5 345.699 97.5H315.816C314.872 97.5 314.319 97.4349 314.156 97.3047C313.993 97.1419 313.912 96.6374 313.912 95.791V80.9961H296.236L288.424 95.4004C287.87 96.4421 287.333 97.1419 286.812 97.5C286.324 97.8255 285.836 97.9883 285.348 97.9883ZM297.457 78.1152H313.912V47.9883L297.457 78.1152ZM364.059 97.5C363.115 97.5 362.496 97.1419 362.203 96.4258C361.91 95.6771 361.764 94.7982 361.764 93.7891V44.9121C361.764 43.9681 361.829 43.431 361.959 43.3008C362.089 43.1706 362.626 43.1055 363.57 43.1055H377.73C382.288 43.1055 386.487 43.2357 390.328 43.4961C394.202 43.724 397.587 44.3587 400.484 45.4004C403.382 46.4095 405.628 48.0697 407.223 50.3809C408.818 52.6595 409.615 55.8659 409.615 60C409.615 62.9622 408.997 65.4199 407.76 67.373C406.523 69.2936 404.879 70.8073 402.828 71.9141C400.81 73.0208 398.58 73.8346 396.139 74.3555C393.73 74.8438 391.337 75.1367 388.961 75.2344L406.93 94.1309C407.483 94.6842 407.76 95.2702 407.76 95.8887C407.76 96.9629 407.206 97.5 406.1 97.5C405.774 97.5 405.4 97.4186 404.977 97.2559C404.553 97.0605 404.146 96.7513 403.756 96.3281L384.176 75.4297H365.914V93.7891C365.914 94.7331 365.8 95.5957 365.572 96.377C365.344 97.1257 364.84 97.5 364.059 97.5ZM365.914 72.207H384.225C388.001 72.207 391.5 71.9466 394.723 71.4258C397.945 70.8724 400.533 69.7331 402.486 68.0078C404.472 66.25 405.465 63.5807 405.465 60C405.465 55.6706 404.407 52.5618 402.291 50.6738C400.175 48.7533 397.05 47.5488 392.916 47.0605C388.814 46.5723 383.753 46.3281 377.73 46.3281H365.914V72.207Z" fill="#4E5146"/>
</svg>
