<svg width="348" height="132" viewBox="0 0 348 132" fill="none" xmlns="http://www.w3.org/2000/svg">
<rect width="348" height="132" rx="30" fill="black" fill-opacity="0.01"/>
<path d="M37.0098 97.5C36.0007 97.5 35.3659 97.1419 35.1055 96.4258C34.8776 95.7096 34.7637 94.9284 34.7637 94.082V46.5234C34.7637 45.6771 34.8939 44.8958 35.1543 44.1797C35.4473 43.4635 36.0983 43.1055 37.1074 43.1055C37.8236 43.1055 38.2956 43.4798 38.5234 44.2285C38.7839 44.9447 38.9141 45.7096 38.9141 46.5234V67.9102H82.127V46.5234C82.127 45.6771 82.2246 44.8958 82.4199 44.1797C82.6478 43.4635 83.2337 43.1055 84.1777 43.1055C85.1543 43.1055 85.7402 43.4635 85.9355 44.1797C86.1634 44.8958 86.2773 45.6771 86.2773 46.5234V94.082C86.2773 94.9284 86.1634 95.7096 85.9355 96.4258C85.7402 97.1419 85.1706 97.5 84.2266 97.5C83.25 97.5 82.6478 97.1419 82.4199 96.4258C82.2246 95.7096 82.127 94.9284 82.127 94.082V70.9375H38.9141V94.082C38.9141 94.8958 38.7676 95.6771 38.4746 96.4258C38.2142 97.1419 37.7259 97.5 37.0098 97.5ZM135.936 98.5254C123.566 98.5254 114.5 96.1979 108.738 91.543C102.977 86.888 100.096 79.8079 100.096 70.3027C100.096 60.7975 102.977 53.7174 108.738 49.0625C114.5 44.4076 123.566 42.0801 135.936 42.0801C148.305 42.0801 157.371 44.4076 163.133 49.0625C168.927 53.7174 171.824 60.7975 171.824 70.3027C171.824 79.8079 168.927 86.888 163.133 91.543C157.371 96.1979 148.305 98.5254 135.936 98.5254ZM135.936 95.3027C146.613 95.3027 154.572 93.4147 159.812 89.6387C165.053 85.8301 167.674 79.3848 167.674 70.3027C167.674 61.2207 165.053 54.7917 159.812 51.0156C154.572 47.207 146.613 45.3027 135.936 45.3027C125.258 45.3027 117.299 47.207 112.059 51.0156C106.85 54.7917 104.246 61.2207 104.246 70.3027C104.246 79.3848 106.85 85.8301 112.059 89.6387C117.299 93.4147 125.258 95.3027 135.936 95.3027ZM187.693 97.5C186.684 97.5 186.098 97.4186 185.936 97.2559C185.773 97.0605 185.691 96.5397 185.691 95.6934V46.2793C185.691 45.4329 185.838 44.7005 186.131 44.082C186.424 43.431 187.042 43.1055 187.986 43.1055C188.768 43.1055 189.272 43.4473 189.5 44.1309C189.728 44.7819 189.842 45.498 189.842 46.2793V94.2773H231.785C232.436 94.2773 232.924 94.4564 233.25 94.8145C233.608 95.14 233.787 95.498 233.787 95.8887C233.787 96.3118 233.608 96.6862 233.25 97.0117C232.924 97.3372 232.436 97.5 231.785 97.5H187.693ZM243.699 97.5C242.755 97.5 242.169 97.1745 241.941 96.5234C241.714 95.8398 241.6 95.026 241.6 94.082V45.7422C241.6 44.9935 241.795 44.375 242.186 43.8867C242.609 43.3659 243.13 43.1055 243.748 43.1055C244.79 43.1055 245.783 43.8053 246.727 45.2051L277 90.7129L307.273 45.2051C308.185 43.8053 309.178 43.1055 310.252 43.1055C310.87 43.1055 311.375 43.3659 311.766 43.8867C312.189 44.375 312.4 44.9935 312.4 45.7422V94.082C312.4 95.026 312.286 95.8398 312.059 96.5234C311.831 97.1745 311.245 97.5 310.301 97.5C309.487 97.5 308.934 97.1745 308.641 96.5234C308.38 95.8398 308.25 95.026 308.25 94.082V50.7227L279.393 93.3008C278.611 94.4076 277.814 94.9609 277 94.9609C276.121 94.9609 275.324 94.4076 274.607 93.3008L245.75 50.7227V94.082C245.75 95.026 245.604 95.8398 245.311 96.5234C245.05 97.1745 244.513 97.5 243.699 97.5Z" fill="#4E5146"/>
</svg>
