<svg width="512" height="125" viewBox="0 0 512 125" fill="none" xmlns="http://www.w3.org/2000/svg">
<rect width="512" height="125" rx="30" fill="black" fill-opacity="0.01"/>
<path d="M41.1562 94C40.2122 94 39.5938 93.6419 39.3008 92.9258C39.0078 92.1771 38.8613 91.2982 38.8613 90.2891V41.4121C38.8613 40.4681 38.9264 39.931 39.0566 39.8008C39.1868 39.6706 39.724 39.6055 40.668 39.6055H54.8281C59.3854 39.6055 63.5846 39.7357 67.4258 39.9961C71.2995 40.224 74.6849 40.8587 77.582 41.9004C80.4792 42.9095 82.7253 44.5697 84.3203 46.8809C85.9154 49.1595 86.7129 52.3659 86.7129 56.5C86.7129 59.4622 86.0944 61.9199 84.8574 63.873C83.6204 65.7936 81.9766 67.3073 79.9258 68.4141C77.9076 69.5208 75.6777 70.3346 73.2363 70.8555C70.8275 71.3438 68.4349 71.6367 66.0586 71.7344L84.0273 90.6309C84.5807 91.1842 84.8574 91.7702 84.8574 92.3887C84.8574 93.4629 84.304 94 83.1973 94C82.8717 94 82.4974 93.9186 82.0742 93.7559C81.651 93.5605 81.2441 93.2513 80.8535 92.8281L61.2734 71.9297H43.0117V90.2891C43.0117 91.2331 42.8978 92.0957 42.6699 92.877C42.4421 93.6257 41.9375 94 41.1562 94ZM43.0117 68.707H61.3223C65.0983 68.707 68.5977 68.4466 71.8203 67.9258C75.043 67.3724 77.6309 66.2331 79.584 64.5078C81.5697 62.75 82.5625 60.0807 82.5625 56.5C82.5625 52.1706 81.5046 49.0618 79.3887 47.1738C77.2728 45.2533 74.1478 44.0488 70.0137 43.5605C65.9121 43.0723 60.8503 42.8281 54.8281 42.8281H43.0117V68.707ZM101.459 94C100.84 94 100.466 93.9023 100.336 93.707C100.238 93.5117 100.189 93.0397 100.189 92.291V41.9004C100.189 40.9564 100.255 40.3379 100.385 40.0449C100.515 39.752 101.052 39.6055 101.996 39.6055H146.576C147.52 39.6055 148.35 39.6543 149.066 39.752C149.815 39.8496 150.189 40.3704 150.189 41.3145C150.189 42.1283 149.815 42.584 149.066 42.6816C148.35 42.7793 147.52 42.8281 146.576 42.8281H104.34V64.2148H146.332C147.048 64.2148 147.65 64.3125 148.139 64.5078C148.627 64.7031 148.871 65.1263 148.871 65.7773C148.871 66.4935 148.66 66.9655 148.236 67.1934C147.846 67.4212 147.325 67.5352 146.674 67.5352H104.34V90.7773H146.674C147.618 90.7773 148.448 90.8262 149.164 90.9238C149.913 91.0215 150.287 91.4772 150.287 92.291C150.287 93.235 149.978 93.7559 149.359 93.8535C148.773 93.9186 148.008 93.9674 147.064 94H101.459ZM198.529 95.0254C186.42 95.0254 177.289 92.8607 171.137 88.5312C164.984 84.1693 161.908 76.9264 161.908 66.8027C161.908 56.679 164.984 49.4525 171.137 45.123C177.289 40.7611 186.42 38.5801 198.529 38.5801C202.729 38.5801 206.83 38.9707 210.834 39.752C214.838 40.5007 218.874 41.7214 222.943 43.4141C223.92 43.8372 224.408 44.4557 224.408 45.2695C224.408 46.2461 223.887 46.7344 222.846 46.7344C222.618 46.7344 222.309 46.653 221.918 46.4902C218.174 44.9277 214.285 43.7559 210.248 42.9746C206.212 42.1934 202.305 41.8027 198.529 41.8027C186.941 41.8027 178.624 43.7884 173.578 47.7598C168.565 51.6986 166.059 58.0462 166.059 66.8027C166.059 75.5592 168.565 81.9232 173.578 85.8945C178.624 89.8333 186.941 91.8027 198.529 91.8027C203.347 91.8027 208.035 91.4772 212.592 90.8262C217.149 90.1751 221.641 89.3125 226.068 88.2383V67.8281H201.166C200.385 67.8281 199.604 67.763 198.822 67.6328C198.074 67.4701 197.699 66.9655 197.699 66.1191C197.699 65.2728 198.074 64.7845 198.822 64.6543C199.571 64.4915 200.352 64.4102 201.166 64.4102H226.068C227.436 64.4102 228.363 64.6706 228.852 65.1914C229.34 65.7122 229.584 66.5911 229.584 67.8281V88.2383C229.584 89.2474 229.21 90.0286 228.461 90.582C227.712 91.1029 226.915 91.4447 226.068 91.6074C221.251 92.5514 216.579 93.349 212.055 94C207.53 94.6836 203.021 95.0254 198.529 95.0254ZM240.863 94C240.082 94 239.285 93.9512 238.471 93.8535C237.689 93.7559 237.299 93.235 237.299 92.291C237.299 91.4772 237.673 91.0215 238.422 90.9238C239.203 90.8262 240.017 90.7773 240.863 90.7773H258.295V42.8281H240.863C240.017 42.8281 239.203 42.7793 238.422 42.6816C237.673 42.584 237.299 42.1283 237.299 41.3145C237.299 40.3704 237.689 39.8496 238.471 39.752C239.285 39.6543 240.082 39.6055 240.863 39.6055H279.877C280.821 39.6055 281.635 39.6543 282.318 39.752C283.035 39.8496 283.393 40.3379 283.393 41.2168C283.393 42.0957 283.035 42.584 282.318 42.6816C281.635 42.7793 280.821 42.8281 279.877 42.8281H262.445V90.7773H279.877C280.821 90.7773 281.635 90.8262 282.318 90.9238C283.035 91.0215 283.393 91.5098 283.393 92.3887C283.393 93.2676 283.035 93.7559 282.318 93.8535C281.635 93.9512 280.821 94 279.877 94H240.863ZM318.5 94C317.654 94 317.084 93.6419 316.791 92.9258C316.531 92.1771 316.4 91.3307 316.4 90.3867V42.8281H290.082C289.171 42.8281 288.34 42.7956 287.592 42.7305C286.843 42.6654 286.469 42.2259 286.469 41.4121C286.469 40.4681 286.859 39.931 287.641 39.8008C288.454 39.6706 289.268 39.6055 290.082 39.6055H346.771C347.715 39.6055 348.529 39.6706 349.213 39.8008C349.929 39.931 350.287 40.4681 350.287 41.4121C350.287 42.2259 349.929 42.6654 349.213 42.7305C348.529 42.7956 347.715 42.8281 346.771 42.8281H320.551V90.3867C320.551 91.3307 320.437 92.1771 320.209 92.9258C320.014 93.6419 319.444 94 318.5 94ZM357.074 94C355.87 94 354.975 93.9349 354.389 93.8047C353.803 93.6419 353.51 93.1211 353.51 92.2422C353.51 91.7214 353.64 91.2819 353.9 90.9238C354.161 90.5658 354.551 90.1589 355.072 89.7031L408.002 42.8281H357.074C356.326 42.8281 355.772 42.6654 355.414 42.3398C355.056 42.0143 354.877 41.64 354.877 41.2168C354.877 40.8262 355.056 40.4681 355.414 40.1426C355.772 39.7845 356.326 39.6055 357.074 39.6055H410.199C411.339 39.6055 412.283 39.6868 413.031 39.8496C413.812 40.0124 414.203 40.5007 414.203 41.3145C414.203 41.7702 414.024 42.2259 413.666 42.6816C413.308 43.1048 412.95 43.5117 412.592 43.9023L359.613 90.7773H410.395C411.143 90.7773 411.713 90.9564 412.104 91.3145C412.494 91.64 412.689 91.998 412.689 92.3887C412.689 92.8118 412.494 93.1862 412.104 93.5117C411.713 93.8372 411.143 94 410.395 94H357.074ZM425.58 94C424.962 94 424.587 93.9023 424.457 93.707C424.359 93.5117 424.311 93.0397 424.311 92.291V41.9004C424.311 40.9564 424.376 40.3379 424.506 40.0449C424.636 39.752 425.173 39.6055 426.117 39.6055H470.697C471.641 39.6055 472.471 39.6543 473.188 39.752C473.936 39.8496 474.311 40.3704 474.311 41.3145C474.311 42.1283 473.936 42.584 473.188 42.6816C472.471 42.7793 471.641 42.8281 470.697 42.8281H428.461V64.2148H470.453C471.169 64.2148 471.771 64.3125 472.26 64.5078C472.748 64.7031 472.992 65.1263 472.992 65.7773C472.992 66.4935 472.781 66.9655 472.357 67.1934C471.967 67.4212 471.446 67.5352 470.795 67.5352H428.461V90.7773H470.795C471.739 90.7773 472.569 90.8262 473.285 90.9238C474.034 91.0215 474.408 91.4772 474.408 92.291C474.408 93.235 474.099 93.7559 473.48 93.8535C472.895 93.9186 472.13 93.9674 471.186 94H425.58Z" fill="#4E5146"/>
</svg>
